<svg viewBox="0 0 1024 1024" version="1.1" xmlns="http://www.w3.org/2000/svg" width="48" height="48"><path d="M870.4 1024H153.6c-35.2 0-64-28.8-64-64V64c0-35.2 28.8-64 64-64h576l204.8 204.8V960c0 35.2-28.8 64-64 64z" fill="#F2F2F2" p-id="12376"></path><path d="M934.4 204.8H747.2c-9.6 0-17.6-8-17.6-17.6V0" fill="#DDDDDD" p-id="12377"></path><path d="M870.4 1024H153.6c-35.2 0-64-28.8-64-64V640h844.8v320c0 35.2-28.8 64-64 64z" fill="#CF3336" p-id="12378"></path><path d="M520 883.2l99.2-118.4h-84.8c-6.4 0-9.6-1.6-14.4-3.2-3.2-3.2-4.8-6.4-4.8-9.6 0-3.2 1.6-8 4.8-9.6 3.2-3.2 8-3.2 14.4-3.2h110.4c14.4 0 22.4 6.4 22.4 19.2 0 6.4-1.6 11.2-3.2 16s-8 9.6-14.4 17.6l-92.8 110.4h102.4c6.4 0 9.6 1.6 14.4 3.2 3.2 3.2 3.2 6.4 3.2 9.6 0 4.8-1.6 9.6-3.2 11.2s-8 3.2-14.4 3.2h-128c-9.6 0-16-1.6-19.2-4.8-3.2-3.2-6.4-9.6-6.4-16 0-3.2 0-3.2 1.6-6.4s1.6-3.2 3.2-4.8c1.6-1.6 3.2-3.2 4.8-6.4 1.6-4.8 3.2-6.4 4.8-8z" fill="#FFFFFF" p-id="12379"></path><path d="M257.6 0h76.8v76.8h-76.8V0z m76.8 76.8h76.8v76.8h-76.8V76.8z m-76.8 76.8h76.8v76.8h-76.8V153.6z m76.8 76.8h76.8v76.8h-76.8v-76.8z m-76.8 76.8h76.8V384h-76.8v-76.8z m76.8 76.8h76.8v76.8h-76.8V384z m59.2 214.4h-118.4c-9.6 0-17.6-8-17.6-17.6v-120h153.6v121.6c0 9.6-8 16-17.6 16z" fill="#DDDDDD" p-id="12380"></path><path d="M380.8 579.2H288c-8 0-12.8-4.8-12.8-12.8s4.8-12.8 12.8-12.8h92.8c8 0 12.8 4.8 12.8 12.8s-6.4 12.8-12.8 12.8zM345.6 729.6l-4.8 46.4h100.8c-36.8 44.8-57.6 96-60.8 153.6v8h56v-8c1.6-35.2 6.4-64 12.8-84.8 8-20.8 22.4-48 46.4-76.8l1.6-1.6v-35.2h-152z" fill="#FFFFFF"></path></svg>