<svg
    viewBox="0 0 1024 1024"
    version="1.1"
    xmlns="http://www.w3.org/2000/svg"
    width="48"
    height="48"
  >
    <path
      d="M960 213.333333v755.2c0 29.866667-25.6 55.466667-55.466667 55.466667H119.466667C89.6 1024 64 998.4 64 968.533333V55.466667C64 25.6 89.6 0 119.466667 0H746.666667"
      fill="#FF4752"
      p-id="13235"
    ></path>
    <path
      d="M960 213.333333h-187.733333c-12.8 0-25.6-12.8-25.6-29.866666V0l213.333333 213.333333z"
      fill="#FF9094"
      p-id="13236"
    ></path>
    <path
      d="M307.2 802.133333c46.933333-29.866667 72.533333-85.333333 98.133333-128 64-17.066667 128-34.133333 192-42.666666 46.933333 17.066667 93.866667 46.933333 145.066667 42.666666 34.133333 0 46.933333-64 12.8-76.8-46.933333-17.066667-98.133333-8.533333-145.066667-4.266666-38.4-25.6-68.266667-59.733333-89.6-98.133334-8.533333-17.066667-21.333333-34.133333-17.066666-55.466666 4.266667-42.666667 12.8-85.333333 12.8-128 0-12.8-4.266667-25.6-17.066667-34.133334-12.8-12.8-46.933333-4.266667-51.2 17.066667-8.533333 59.733333 8.533333 115.2 21.333333 170.666667-25.6 59.733333-55.466667 115.2-85.333333 174.933333-4.266667 12.8-17.066667 25.6-25.6 29.866667-46.933333 25.6-93.866667 51.2-115.2 98.133333-8.533333 38.4 42.666667 51.2 64 34.133333zM763.733333 640c-34.133333 8.533333-68.266667-4.266667-98.133333-21.333333 34.133333 0 76.8-8.533333 98.133333 21.333333zM482.133333 285.866667c25.6 34.133333 21.333333 76.8 4.266667 115.2-8.533333-34.133333-8.533333-76.8-4.266667-115.2z m4.266667 226.133333c17.066667 34.133333 46.933333 64 76.8 93.866667-46.933333 8.533333-93.866667 25.6-136.533333 38.4 21.333333-42.666667 42.666667-85.333333 59.733333-132.266667z m-136.533333 183.466667c-21.333333 34.133333-42.666667 64-76.8 89.6 17.066667-34.133333 46.933333-64 76.8-89.6z m0 0"
      fill="#FFFFFF"
    ></path>
  </svg>