<svg viewBox="0 0 1047 1024" version="1.1" xmlns="http://www.w3.org/2000/svg" width="48" height="48">
    <path d="M1045.590194 154.937533c2.73498-27.352677-18.672465-48.634822-46.025142-46.019381-127.003007-1.901092-254.249411 0.118098-381.360435-0.596251V1.296199h-67.425385C367.048801 32.569157 183.556006 64.917961 0.05169 96.670513c0 277.315991-0.118098 554.75584 0 832.189929 181.355507 31.86921 362.952971 62.074965 544.173096 95.138118h73.979831v-118.919047c119.038585 0 237.957632-0.236196 356.876679 0.354294 20.337361-0.950546 42.920026 0.71435 60.281889-11.893344 13.794437-21.282145 10.227009-47.920473 11.413751-71.943359-1.664895-222.260663 0.833888-444.517006-1.186742-666.659571zM348.844407 552.140399c-26.998383 13.794437-57.912726 11.893345-87.286033 10.937038-0.123859 46.497534-0.252039 92.995069-0.123859 139.482522-23.554814-2.02063-47.217645-4.045581-70.755176-5.946672-1.070084-127.004447-1.30628-254.126993 0.122419-381.135761 0 0 141.153178-34.222531 196.332364 22.834704 53.338584 63.34812 37.699224 176.591256-38.289715 213.828169z m661.793064 317.259079H618.204617v-95.132356H903.610329v-47.567619H618.204617V667.23998H903.610329v-47.566179H618.322715c-0.118098-23.308536-0.118098-46.615633-0.247718-69.924169 47.105308 14.615363 100.737697 14.266829 142.835357-14.047915 45.541228-26.992622 69.327918-78.486283 73.25396-129.844563-52.218092-0.354294-104.41026-0.236196-156.500173-0.236197-0.12818-51.729857 0.596251-103.459715-1.068644-155.071473-19.516435 3.803624-39.004065 7.847764-58.39088 12.011443V143.996174h392.432854v725.403304z" fill="#D24625" p-id="5306"></path>
    <path d="M701.557407 225.69415c-0.253479 51.966054-0.118098 104.055966-0.118098 156.140118 52.20225 0 104.398739 0.236196 156.61251-0.354295-4.398435-82.413765-73.832929-151.976439-156.494412-155.785823zM261.451798 379.815078l1.901092 119.633396c23.651309-2.857398 54.335217-0.478153 67.899218-24.973432 11.285572-24.021446 12.011443-54.705354-1.552558-78.01389-15.809306-21.996495-44.832639-17.704637-68.247752-16.646074z" fill="#D24625"></path>
</svg>