<svg viewBox="0 0 1024 1024" version="1.1" xmlns="http://www.w3.org/2000/svg" width="48" height="48"><path d="M864.233 245.503V961.32H271.945c-61.206 0-110.824-49.618-110.824-110.824V63.68h512.095l191.017 181.823z" fill="#F95452" p-id="8555"></path><path d="M673.216 63.68v200.763h191.017v-18.94z" fill="#CC2929" p-id="8556"></path><path d="M673.216 63.68v181.823h191.017z" fill="#F98585" p-id="8557"></path><path d="M424.104 63.68h167.659v754.464H424.104V63.68z" fill="#CC2929" p-id="8558"></path><path d="M93.375 494.389h838.292v356.066H93.375z" fill="#F98585" p-id="8559"></path><path d="M322.378 559.603c22.128 0 39.425 5.46 51.903 16.373 12.472 10.92 18.712 25.87 18.712 44.864 0 14.192-3.203 26.636-9.6 37.33-6.402 10.698-16.652 18.011-30.751 21.94v0.654c6.722 1.31 12.202 3.495 16.433 6.549 4.23 3.06 7.59 6.714 10.088 10.97 2.491 4.258 4.336 9.005 5.532 14.245a152.15 152.15 0 0 1 2.766 16.373c0.431 5.678 0.758 11.46 0.976 17.354 0.214 5.894 0.757 11.682 1.627 17.357 0.865 5.678 2.115 11.082 3.742 16.209 1.627 5.133 4.068 9.659 7.322 13.588h-34.494c-2.171-2.398-3.636-5.674-4.393-9.824-0.762-4.145-1.25-8.784-1.464-13.916a2583.43 2583.43 0 0 1-0.651-16.537 115.296 115.296 0 0 0-1.952-17.356c-0.87-5.675-1.953-11.077-3.255-16.21-1.301-5.126-3.365-9.603-6.182-13.424-2.823-3.817-6.509-6.878-11.064-9.17s-10.633-3.437-18.223-3.437h-75.496v99.874H213.04V559.604h109.338z m6.507 106.098c6.509-1.091 12.203-3.22 17.085-6.386 4.88-3.162 8.786-7.419 11.714-12.77 2.93-5.347 4.393-12.28 4.393-20.794 0-11.789-3.254-21.391-9.762-28.817-6.508-7.419-17.034-11.132-31.565-11.132h-76.797v81.537h64.432c7.159-0.001 13.993-0.544 20.5-1.638z m204.358-106.098l90.79 233.805h-34.169l-25.382-70.402h-98.274l-26.033 70.402H408.61l90.465-233.805h34.168z m21.477 137.205l-38.724-109.042h-0.65L475.97 696.808h78.75z m201.428-137.205c22.129 0 39.424 5.46 51.903 16.373 12.473 10.92 18.71 25.87 18.71 44.864 0 14.192-3.202 26.636-9.599 37.33-6.402 10.698-16.651 18.011-30.751 21.94v0.654c6.72 1.31 12.204 3.495 16.433 6.549 4.231 3.06 7.592 6.714 10.088 10.97 2.492 4.258 4.337 9.005 5.532 14.245a151.9 151.9 0 0 1 2.765 16.373c0.433 5.678 0.758 11.46 0.977 17.354 0.214 5.894 0.757 11.682 1.627 17.357 0.864 5.678 2.114 11.082 3.741 16.209 1.627 5.133 4.069 9.659 7.322 13.588h-34.492c-2.17-2.398-3.636-5.674-4.394-9.824-0.762-4.145-1.251-8.784-1.464-13.916a2583.5 2583.5 0 0 1-0.65-16.537 115.429 115.429 0 0 0-1.953-17.356c-0.87-5.675-1.953-11.077-3.254-16.21-1.302-5.126-3.366-9.603-6.184-13.424-2.822-3.817-6.507-6.878-11.064-9.17s-10.632-3.437-18.223-3.437h-75.496v99.874h-30.914V559.604h109.34z m6.508 106.098c6.508-1.091 12.203-3.22 17.083-6.386 4.882-3.162 8.786-7.419 11.716-12.77 2.927-5.347 4.393-12.28 4.393-20.794 0-11.789-3.255-21.391-9.764-28.817-6.507-7.419-17.033-11.132-31.565-11.132h-76.797v81.537h64.432c7.16-0.001 13.994-0.544 20.502-1.638z" fill="#FFFFFF" p-id="8560"></path><path d="M528.89 335.552c25.15 0 41.915 16.766 41.915 41.915s-16.766 41.915-41.914 41.915h-41.915c-25.149 0-41.915-16.766-41.915-41.915s16.766-41.915 41.915-41.915h41.915z m0-41.914h-41.914c-46.106 0-83.83 37.723-83.83 83.829s37.724 83.83 83.83 83.83h41.915c46.106 0 83.829-37.724 83.829-83.83s-37.723-83.83-83.83-83.83" fill="#F95452"></path></svg>