<svg viewBox="0 0 1050 1024" version="1.1" xmlns="http://www.w3.org/2000/svg" width="48" height="48"><path d="M550.467368 5.995789h69.955369v94.154106c117.800421 0 235.600842 0.229053 353.401263-0.36379 19.887158 0.821895 41.781895-0.592842 59.055158 11.304421 12.126316 17.381053 10.711579 39.545263 11.573895 59.553685-0.579368 204.301474-0.673684 408.522105-0.229053 612.661894-0.592842 34.250105 3.166316 69.200842-4.001684 102.965895-4.783158 24.441263-34.223158 25.034105-53.894737 25.856-121.936842 0.350316-243.968-0.242526-366.012632 0v105.876211h-73.027368c-179.361684-32.606316-359.073684-62.733474-538.650947-94.154106V100.217263C189.291789 68.796632 369.933474 37.847579 550.467368 5.995789z" fill="#207245" p-id="4439"></path><path d="M620.422737 135.410526H1008.774737v741.402948H620.422737v-70.629053h94.140631v-82.351158h-94.140631v-47.077052h94.140631v-82.378106h-94.140631V547.301053h94.140631v-82.364632h-94.140631v-47.090526h94.140631V335.494737h-94.140631v-47.077053h94.140631V206.012632h-94.140631z" fill="#FFFFFF" p-id="4440"></path><path d="M761.586526 206.012632h164.756211v82.391579H761.586526V206.012632z m0 129.468631h164.756211v82.378105H761.586526V335.494737z m0 129.455158h164.756211v82.378105H761.586526v-82.378105z m0 129.441684h164.756211v82.391579H761.586526v-82.391579z m0 129.455158h164.756211v82.391579H761.586526v-82.391579z" fill="#207245" p-id="4441"></path><path d="M46.659368 557.338947l45.500632-75.048421-41.229474-68.769684h31.434106l26.691368 46.214737 26.206316-46.214737h31.164631l-41.418105 69.861053 45.500632 73.970526h-32.417685l-29.507368-49.785263-29.615158 49.785263H46.659368z m138.320843 0V414.733474h26.893473v118.379789h66.829474v24.225684H184.993684z m106.091789-46.780631l26.152421-2.748632c1.549474 9.472 4.742737 16.437895 9.566316 20.84379 4.850526 4.405895 11.344842 6.642526 19.482947 6.682947 8.663579 0 15.184842-1.980632 19.577263-5.941895 4.378947-3.961263 6.575158-8.596211 6.588632-13.891368a13.797053 13.797053 0 0 0-2.775579-8.677053c-1.845895-2.398316-5.066105-4.473263-9.660632-6.224842-3.152842-1.185684-10.334316-3.287579-21.530947-6.29221-14.416842-3.866947-24.522105-8.609684-30.329263-14.228211a38.750316 38.750316 0 0 1-12.261053-28.954947 39.154526 39.154526 0 0 1 5.793684-20.560842c3.907368-6.4 9.674105-11.452632 16.532211-14.497685 7.235368-3.341474 15.966316-5.012211 26.206316-5.01221 16.707368 0 29.291789 3.961263 37.726316 11.856842 8.448 7.922526 12.894316 18.485895 13.312 31.703579l-26.88 1.266526c-1.158737-7.383579-3.624421-12.692211-7.410527-15.939368-3.772632-3.233684-9.445053-4.850526-17.017263-4.850526-7.814737 0-13.931789 1.724632-18.351158 5.187368a10.778947 10.778947 0 0 0-4.271158 8.933053 11.385263 11.385263 0 0 0 3.988211 8.730947c3.395368 3.085474 11.627789 6.292211 24.710737 9.62021 13.069474 3.328 22.743579 6.763789 29.008842 10.334316a38.804211 38.804211 0 0 1 14.699789 14.632421c3.543579 6.170947 5.322105 13.810526 5.322106 22.905263 0.026947 8.151579-2.169263 16.168421-6.359579 23.161264a38.858105 38.858105 0 0 1-17.946948 16.047158c-7.720421 3.503158-17.367579 5.254737-28.941473 5.254736-16.842105 0-29.776842-4.203789-38.777264-12.611368-9.027368-8.407579-14.416842-20.641684-16.168421-36.729263z" fill="#FFFFFF"></path></svg>