<svg viewBox="0 0 1024 1024" version="1.1" xmlns="http://www.w3.org/2000/svg" width="48" height="48"><path d="M874.184348 932.953043c0 16.873739-13.712696 30.185739-29.918609 30.18574h-0.534261v1.513739H180.847304a30.096696 30.096696 0 0 1-29.918608-30.185739V90.779826c0-16.873739 13.712696-30.141217 29.918608-30.141217h419.973566v244.557913c0 16.873739 13.668174 30.185739 29.918608 30.185739h242.910609v597.570782h0.534261zM661.147826 103.602087l170.429217 171.898435h-169.894956V103.602087h-0.534261z m271.849739 198.522435v-4.630261a31.076174 31.076174 0 0 0-7.568695-13.801739L652.466087 8.414609a30.630957 30.630957 0 0 0-13.668174-7.657739H180.847304C131.161043 0.26713 90.601739 40.648348 90.067478 90.824348v842.128695C90.067478 983.04 130.671304 1024 180.357565 1024h663.373913c49.686261 0 90.290087-40.96 90.290087-91.046957v-627.756521c-0.534261-1.024-0.534261-2.048-1.024-3.116522z" fill="#7FBBEB" p-id="11450"></path><path d="M44.521739 845.913043h934.956522v-400.695652H44.521739z" fill="#0078D7" p-id="11451"></path><path d="M395.709217 563.289043V534.26087H191.844174v32.812521h142.914783L178.086957 731.046957V756.869565h222.608695v-30.72H236.588522zM489.73913 756.869565h44.52174v-222.608695h-44.52174zM663.195826 566.049391H712.347826c30.942609 0.667826 46.703304 13.000348 48.083478 37.665392-0.712348 26.089739-16.473043 39.090087-48.083478 39.757913h-49.107478v-77.467826z m138.195478 36.418783c-2.982957-43.097043-30.363826-66.025739-81.385739-68.207304H623.304348v222.608695h39.891478v-81.652869h53.515131c55.429565-0.712348 83.923478-25.110261 84.680347-72.570435v-0.178087z" fill="#FFFFFF"></path></svg>